{
	"asset": {
		"generator": "Khronos glTF Blender I/O v4.1.63",
		"version": "2.0"
	},
	"scene": 0,
	"scenes": [
		{
			"name": "Scene",
			"nodes": [
				0,
				1,
				2
			]
		}
	],
	"nodes": [
		{
			"mesh": 0,
			"name": "Basket",
			"rotation": [
				-0.5,
				0,
				0,
				0.8660253882408142
			],
			"translation": [
				0,
				-0.007346853613853455,
				-0.005586136132478714
			]
		},
		{
			"mesh": 1,
			"name": "Fruit",
			"rotation": [
				-0.5,
				0,
				0,
				0.8660253882408142
			],
			"translation": [
				0,
				-0.007346853613853455,
				-0.0055861324071884155
			]
		},
		{
			"camera": 0,
			"name": "Camera",
			"translation": [
				0,
				0.05000000074505806,
				1
			]
		}
	],
	"cameras": [
		{
			"name": "Camera.001",
			"perspective": {
				"aspectRatio": 1.7777777777777777,
				"yfov": 0.39959652046304894,
				"zfar": 1000,
				"znear": 0.10000000149011612
			},
			"type": "perspective"
		}
	],
	"materials": [
		{
			"name": "Basket",
			"pbrMetallicRoughness": {
				"metallicFactor": 0
			}
		},
		{
			"name": "Fruit",
			"pbrMetallicRoughness": {
				"baseColorTexture": {
					"index": 0
				},
				"metallicRoughnessTexture": {
					"index": 1
				}
			}
		}
	],
	"meshes": [
		{
			"name": "Basket",
			"primitives": [
				{
					"attributes": {
						"POSITION": 0,
						"NORMAL": 1,
						"TEXCOORD_0": 2
					},
					"indices": 3,
					"material": 0
				}
			]
		},
		{
			"name": "Fruit",
			"primitives": [
				{
					"attributes": {
						"POSITION": 4,
						"NORMAL": 5,
						"TEXCOORD_0": 6
					},
					"indices": 7,
					"material": 1
				}
			]
		}
	],
	"textures": [
		{
			"sampler": 0,
			"source": 0
		},
		{
			"sampler": 0,
			"source": 1
		}
	],
	"images": [
		{
			"mimeType": "image/jpeg",
			"name": "test_albedo",
			"uri": "test_albedo.jpg"
		},
		{
			"mimeType": "image/jpeg",
			"name": "test_orm",
			"uri": "test_orm.jpg"
		}
	],
	"accessors": [
		{
			"bufferView": 0,
			"componentType": 5126,
			"count": 17832,
			"max": [
				0.14707215130329132,
				0.19134199619293213,
				0.11650625616312027
			],
			"min": [
				-0.14794300496578217,
				-0.19188226759433746,
				-0.000916633231099695
			],
			"type": "VEC3"
		},
		{
			"bufferView": 1,
			"componentType": 5126,
			"count": 17832,
			"type": "VEC3"
		},
		{
			"bufferView": 2,
			"componentType": 5126,
			"count": 17832,
			"type": "VEC2"
		},
		{
			"bufferView": 3,
			"componentType": 5123,
			"count": 66828,
			"type": "SCALAR"
		},
		{
			"bufferView": 4,
			"componentType": 5126,
			"count": 29006,
			"max": [
				0.13452692329883575,
				0.17959971725940704,
				0.20172017812728882
			],
			"min": [
				-0.14046065509319305,
				-0.16962416470050812,
				0.006418745964765549
			],
			"type": "VEC3"
		},
		{
			"bufferView": 5,
			"componentType": 5126,
			"count": 29006,
			"type": "VEC3"
		},
		{
			"bufferView": 6,
			"componentType": 5126,
			"count": 29006,
			"type": "VEC2"
		},
		{
			"bufferView": 7,
			"componentType": 5123,
			"count": 117600,
			"type": "SCALAR"
		}
	],
	"bufferViews": [
		{
			"buffer": 0,
			"byteLength": 213984,
			"byteOffset": 0,
			"target": 34962
		},
		{
			"buffer": 0,
			"byteLength": 213984,
			"byteOffset": 213984,
			"target": 34962
		},
		{
			"buffer": 0,
			"byteLength": 142656,
			"byteOffset": 427968,
			"target": 34962
		},
		{
			"buffer": 0,
			"byteLength": 133656,
			"byteOffset": 570624,
			"target": 34963
		},
		{
			"buffer": 0,
			"byteLength": 348072,
			"byteOffset": 704280,
			"target": 34962
		},
		{
			"buffer": 0,
			"byteLength": 348072,
			"byteOffset": 1052352,
			"target": 34962
		},
		{
			"buffer": 0,
			"byteLength": 232048,
			"byteOffset": 1400424,
			"target": 34962
		},
		{
			"buffer": 0,
			"byteLength": 235200,
			"byteOffset": 1632472,
			"target": 34963
		}
	],
	"samplers": [
		{
			"magFilter": 9729,
			"minFilter": 9987,
			"wrapS": 33071,
			"wrapT": 33071
		}
	],
	"buffers": [
		{
			"byteLength": 1867672,
			"uri": "test.bin"
		}
	]
}